<?xml version="1.0" encoding="utf-8"?>
<!-- Generator: Adobe Illustrator 24.3.0, SVG Export Plug-In . SVG Version: 6.00 Build 0)  -->
<svg version="1.1" id="Capa_1" xmlns="http://www.w3.org/2000/svg" xmlns:xlink="http://www.w3.org/1999/xlink" x="0px" y="0px"
	 viewBox="0 0 585.26 139.58" style="enable-background:new 0 0 585.26 139.58;" xml:space="preserve">
<style type="text/css">
	.st0{fill:#FFFFFF;}
</style>
<g>
	<g>
		<g>
			<g>
				<path class="st0" d="M515.82,46.99c3.27,0,5.96-1.7,6.33-3.9l3.23-36.52c0-3.61-4.23-6.58-9.55-6.58
					c-5.31,0-9.53,2.97-9.53,6.58l3.22,36.52c0.36,2.2,3.05,3.9,6.31,3.9H515.82z"/>
				<path class="st0" d="M496.08,58.4c1.64-2.83,1.51-6.01-0.21-7.42l-30.02-21.05c-3.12-1.81-7.8,0.37-10.46,4.97
					c-2.66,4.6-2.19,9.74,0.93,11.54l33.23,15.47c2.08,0.77,4.91-0.71,6.54-3.54L496.08,58.4z"/>
				<path class="st0" d="M535.57,58.38c1.64,2.83,4.46,4.31,6.54,3.54l33.24-15.47c3.13-1.8,3.58-6.94,0.93-11.54
					c-2.67-4.6-7.36-6.78-10.47-4.97l-30.02,21.05c-1.72,1.41-1.84,4.59-0.21,7.42L535.57,58.38z"/>
			</g>
			<g>
				<path class="st0" d="M515.82,92.6c3.27,0,5.96,1.69,6.33,3.89l3.23,36.52c0,3.62-4.23,6.57-9.55,6.57
					c-5.31,0-9.53-2.96-9.53-6.57l3.22-36.52c0.36-2.2,3.05-3.89,6.31-3.89H515.82z"/>
				<path class="st0" d="M535.57,81.2c1.64-2.83,4.46-4.3,6.54-3.52l33.24,15.46c3.13,1.81,3.58,6.95,0.93,11.56
					c-2.67,4.59-7.36,6.77-10.47,4.97l-30.02-21.04c-1.72-1.43-1.84-4.61-0.21-7.43L535.57,81.2z"/>
				<path class="st0" d="M496.08,81.19c1.64,2.83,1.51,6.01-0.21,7.43l-30.02,21.04c-3.12,1.8-7.8-0.38-10.46-4.97
					c-2.66-4.6-2.19-9.75,0.93-11.56l33.23-15.46c2.08-0.78,4.91,0.69,6.54,3.52L496.08,81.19z"/>
			</g>
		</g>
	</g>
	<g>
		<path class="st0" d="M342.92,73.99c0-13.79-5.89-25.92-25.79-25.92c-10.22,0-18.33,2.87-22.76,5.43l3.24,11.08
			c4.04-2.55,10.49-4.66,16.59-4.66c10.1-0.03,11.75,5.71,11.75,9.4v0.87c-22.01-0.03-35.92,7.58-35.92,23.12
			c0,9.48,7.08,18.37,19.4,18.37c7.57,0,13.91-3.02,17.7-7.87h0.38c0,0,2.51,10.52,16.37,6.5c-0.73-4.38-0.96-9.04-0.96-14.66V73.99
			z M326.49,88.55c0,1.12-0.1,2.28-0.41,3.29c-1.27,4.22-5.64,7.78-11.1,7.78c-4.55,0-8.17-2.58-8.17-8.05
			c0-8.36,9.2-10.67,19.68-10.62V88.55z"/>
		<path class="st0" d="M0,29.29c0,0,14.38,58.93,16.68,68.5c2.68,11.17,7.51,15.27,21.42,12.5l8.98-36.54
			c2.28-9.08,3.8-15.54,5.27-24.78h0.26c1.03,9.32,2.49,15.73,4.37,24.81c0,0,3.66,16.59,5.53,25.3c1.88,8.71,7.1,14.2,20.73,11.21
			l21.4-81H87.35l-7.31,35.02C78.08,74.5,76.3,82.47,74.92,91.8h-0.25c-1.25-9.24-2.84-16.88-4.83-26.81l-7.61-35.69h-18L36.1,64.08
			c-2.3,10.57-4.46,19.11-5.83,28.12h-0.25c-1.4-8.48-3.28-19.21-5.3-29.45c0,0-4.83-24.89-6.53-33.46H0z"/>
		<path class="st0" d="M153.72,73.99c0-13.79-5.89-25.92-25.79-25.92c-10.22,0-18.34,2.87-22.76,5.43l3.24,11.08
			c4.05-2.55,10.49-4.66,16.6-4.66c10.1-0.03,11.76,5.71,11.76,9.4v0.87c-22.02-0.03-35.92,7.58-35.92,23.12
			c0,9.48,7.08,18.37,19.39,18.37c7.58,0,13.91-3.02,17.71-7.87h0.37c0,0,2.52,10.52,16.37,6.5c-0.73-4.38-0.96-9.04-0.96-14.66
			V73.99z M137.29,88.55c0,1.12-0.1,2.28-0.41,3.29c-1.27,4.22-5.64,7.78-11.1,7.78c-4.55,0-8.17-2.58-8.17-8.05
			c0-8.36,9.2-10.67,19.68-10.62V88.55z"/>
		<polygon class="st0" points="181.14,93.09 181.14,29.29 164.69,29.29 164.69,110.29 181.14,110.29 		"/>
		<path class="st0" d="M396.35,29.29c0,7.77,0,59.75,0,59.75c0,8.24,1.55,14.01,4.87,17.54c2.9,3.08,7.67,5.08,13.39,5.08
			c4.86,0,9.65-0.92,11.9-1.76l-0.21-12.85c-1.68,0.41-3.61,0.74-6.25,0.74c-5.6,0-7.48-3.59-7.48-10.99V63.94h14.32v-15.5h-14.32
			V29.29H396.35z"/>
		<path class="st0" d="M353.89,49.44v60.85h16.97V79.13c0-1.68,0.1-3.15,0.37-4.49c1.26-6.53,6.25-10.7,13.41-10.7
			c1.97,0,3.37,0.21,4.9,0.43V48.45c-1.28-0.26-2.15-0.38-3.74-0.38c-6.33,0-13.54,4.09-16.56,12.85h-0.46V49.44H353.89z"/>
		<path class="st0" d="M192.66,49.44v60.85h16.54V74.61c0-1.67,0.19-3.44,0.78-4.98c1.37-3.59,4.71-7.8,10.05-7.8
			c6.67,0,9.79,5.64,9.79,13.78v34.68h16.52V74.18c0-1.6,0.22-3.52,0.69-4.93c1.36-4.09,4.96-7.41,9.92-7.41
			c6.76,0,10.01,5.54,10.01,15.12c0,0,0,25.71,0,33.34h16.53V74.45c0-18.9-9.6-26.38-20.43-26.38c-4.8,0-8.58,1.2-12.01,3.3
			c-2.88,1.77-5.46,4.28-7.71,7.58h-0.24c-2.61-6.56-8.76-10.88-16.77-10.88c-10.29,0-14.92,5.22-17.72,9.64h-0.24v-8.27H192.66z"/>
	</g>
	<g>
		<path class="st0" d="M582.38,106.59c1.62,0,2.88,1.26,2.88,2.83c0,1.6-1.26,2.85-2.9,2.85c-1.62,0-2.91-1.24-2.91-2.85
			c0-1.57,1.29-2.83,2.91-2.83H582.38z M582.34,107.16c-1.24,0-2.17,1.02-2.17,2.26c0,1.26,0.93,2.26,2.21,2.26
			c1.24,0.02,2.16-1,2.16-2.26c0-1.24-0.91-2.26-2.17-2.26H582.34z M581.91,110.89h-0.66v-2.81c0.26-0.05,0.62-0.1,1.09-0.1
			c0.54,0,0.78,0.09,0.98,0.22c0.15,0.12,0.28,0.34,0.28,0.6c0,0.33-0.24,0.57-0.59,0.67v0.04c0.28,0.09,0.43,0.31,0.52,0.69
			c0.09,0.43,0.14,0.6,0.21,0.69h-0.71c-0.09-0.1-0.14-0.34-0.22-0.67c-0.05-0.31-0.22-0.45-0.59-0.45h-0.31V110.89z M581.93,109.3
			h0.31c0.36,0,0.66-0.12,0.66-0.41c0-0.26-0.19-0.43-0.6-0.43c-0.17,0-0.29,0.02-0.36,0.03V109.3z"/>
	</g>
</g>
</svg>
